<?xml version="1.0" standalone="no"?><!DOCTYPE svg PUBLIC "-//W3C//DTD SVG 1.1//EN" "http://www.w3.org/Graphics/SVG/1.1/DTD/svg11.dtd"><svg t="1629279270079" class="icon" viewBox="0 0 1024 1024" version="1.1" xmlns="http://www.w3.org/2000/svg" p-id="4986" xmlns:xlink="http://www.w3.org/1999/xlink" width="128" height="128"><defs><style type="text/css"></style></defs><path d="M769.9 196.1C748.1 213.3 91.1 795.3 91.1 795.3s-44.3 30-19.5 68.3c24.8 38.3 42.8 52.6 63.8 36.8 42.1-27.8-9.8-51.1 45.1-90.1 45.8-34 60.1-24 84.1-48.8 24-24.8 39-66.8 65.3-81.9 26.3-15 53.1-50.7 76.6-31.5 12.4 11.2 26 27.6 34.3 38.3 4.4 5.7 12.7 6.5 18.1 1.7l354-309.6s144.8-139.8 143.3-261.3c-0.1 0-164.5 61.6-186.3 78.9zM124.1 819.4c-6.4 0-11.6-5.2-11.6-11.6 0-6.4 5.2-11.6 11.6-11.6 6.4 0 11.6 5.2 11.6 11.6 0.1 6.4-5.1 11.6-11.6 11.6z m74.7-66.4c-6.4 0-11.6-5.2-11.6-11.6 0-6.4 5.2-11.6 11.6-11.6 6.4 0 11.6 5.2 11.6 11.6 0 6.4-5.2 11.6-11.6 11.6z m74.9-67.2c-6.4 0-11.6-5.2-11.6-11.6 0-6.4 5.2-11.6 11.6-11.6 6.4 0 11.6 5.2 11.6 11.6 0 6.4-5.2 11.6-11.6 11.6z" p-id="4987"></path><path d="M685.5 517.4L495.1 683.9c19.3 18.4 36.1 31.6 46.4 33.9-44.9 45.6-58.3 52.2-99 13.9-20.9-21.5-40.9-43.1-60.1-64.4-1.3 0.8-2.7 1.7-4.1 2.7 30.1 34.4 59 66.7 74.1 82.4 35.8 37.1 65 5.3 65 5.3s60.1-60.8 95.9-96.2c32-36.5 50.6-24.6 50.6-24.6 20 3.6 21 43.7 53.9 65.7C746 712.8 832.8 822.2 864 857c31.2 34.8 55.2 26.3 76.7 9.5 25.5-24.6 26.1-47.3 0-83.2-129.8-134-208.8-216.8-255.2-265.9z m65.4 152.7c-7.8 0-14.1-6.3-14.1-14.1s6.3-14.1 14.1-14.1S765 648.2 765 656s-6.3 14.1-14.1 14.1z m138.9 150c-7.8 0-14.1-6.3-14.1-14.1s6.3-14.1 14.1-14.1 14.1 6.3 14.1 14.1-6.3 14.1-14.1 14.1zM279.2 555.6c4.6 5.4 12.4 14.5 22.2 25.9 1.4-1.3 2.9-2.6 4.3-3.8-95.8-117.6-158.5-216.3-175.3-248-23.9-44.9 35.8-59.7 61.1-73 0 0-8 20.4 2.1 40.7 10.1 20.4 143.2 204.2 162.1 228.1 1 1.2 2.2 2.8 3.7 4.7 63.1-55.8 128.9-114 188.5-166.6-68.4-84.7-123.4-167-138.4-192.2-20.5-34.3-46.7-27.1-60.8-18.7 0 0-178.2 104-212.6 123-34.4 19-18.8 45.6-13.3 59 5.4 13.1 131.8 192.1 156.4 220.9z m94.5-370.3c10.7 0 19.4 8.7 19.4 19.4s-8.7 19.4-19.4 19.4-19.4-8.7-19.4-19.4 8.8-19.4 19.4-19.4z" p-id="4988"></path></svg>