<?xml version="1.0" standalone="no"?><!DOCTYPE svg PUBLIC "-//W3C//DTD SVG 1.1//EN" "http://www.w3.org/Graphics/SVG/1.1/DTD/svg11.dtd"><svg t="1629279708998" class="icon" viewBox="0 0 1024 1024" version="1.1" xmlns="http://www.w3.org/2000/svg" p-id="7694" xmlns:xlink="http://www.w3.org/1999/xlink" width="128" height="128"><defs><style type="text/css"></style></defs><path d="M888.1664 302.4384L637.44 111.616a176.0768 176.0768 0 0 0-106.8544-35.9936c-37.6832 0-75.264 11.9296-106.8032 35.9936l-250.88 190.8224a88.064 88.064 0 0 0-34.816 70.2976v418.816a161.792 161.792 0 0 0 161.792 161.792h461.312a161.792 161.792 0 0 0 161.792-161.792V372.736a87.6544 87.6544 0 0 0-34.816-70.2976z m-33.28 488.96a93.696 93.696 0 0 1-93.5424 93.4912H299.8784a93.696 93.696 0 0 1-93.5424-93.4912V372.736c0-6.144 2.9184-12.1344 7.8336-15.872l250.88-190.8224a107.008 107.008 0 0 1 65.536-22.1696c23.9104 0 46.592 7.68 65.536 22.1696l250.88 190.8224c4.9664 3.7376 7.8848 9.728 7.8848 15.872v418.6624z m-324.4544-335.36a164.864 164.864 0 0 0-164.7104 164.6592v114.5344c0 18.7904 15.36 34.1504 34.1504 34.1504 18.7904 0 34.1504-15.36 34.1504-34.1504v-114.5344a96.4608 96.4608 0 0 1 192.8704 0v114.5344c0 18.7904 15.36 34.1504 34.0992 34.1504 18.7904 0 34.1504-15.36 34.1504-34.1504v-114.5344a164.8128 164.8128 0 0 0-164.7104-164.6592z" fill="#888888" p-id="7695"></path></svg>