<?xml version="1.0" standalone="no"?><!DOCTYPE svg PUBLIC "-//W3C//DTD SVG 1.1//EN" "http://www.w3.org/Graphics/SVG/1.1/DTD/svg11.dtd"><svg t="1629279203549" class="icon" viewBox="0 0 1024 1024" version="1.1" xmlns="http://www.w3.org/2000/svg" p-id="4223" xmlns:xlink="http://www.w3.org/1999/xlink" width="128" height="128"><defs><style type="text/css"></style></defs><path d="M729.4464 867.072l-4.096-8.192H309.3504l-4.096 8.192 30.72 40.8064 9.0624-1.6896 64-224a37.12 37.12 0 0 0-71.3728-20.3776L273.664 885.76a37.12 37.12 0 0 0 35.6864 47.3088h416c24.6272 0 42.496-23.6032 35.6864-47.3088l-64-224a37.12 37.12 0 1 0-71.3728 20.3776l64 224 9.0112 1.6896 30.72-40.8064zM517.3248 485.12a53.0944 53.0944 0 1 0 0-106.24 53.0944 53.0944 0 0 0 0 106.24zM879.8208 133.7344a37.12 37.12 0 0 0-52.5312 0L731.1872 229.888l-96.1024 96.1024a37.12 37.12 0 1 0 52.48 52.48l192.256-192.2048a37.12 37.12 0 0 0 0-52.5312zM155.0848 133.7344a37.12 37.12 0 0 0 0 52.5312l192.2048 192.2048A37.12 37.12 0 0 0 399.872 325.9904L207.5648 133.7344a37.12 37.12 0 0 0-52.48 0zM879.8208 730.2656a37.12 37.12 0 0 0 0-52.5312l-192.256-192.2048a37.12 37.12 0 1 0-52.48 52.48l192.2048 192.256a37.12 37.12 0 0 0 52.5312 0zM155.0848 730.2656a37.12 37.12 0 0 0 52.48 0l14.9504-14.9504 177.3056-177.3056a37.12 37.12 0 0 0-52.5312-52.48L155.136 677.7344a37.12 37.12 0 0 0 0 52.5312z" p-id="4224"></path></svg>