<?xml version="1.0" standalone="no"?><!DOCTYPE svg PUBLIC "-//W3C//DTD SVG 1.1//EN" "http://www.w3.org/Graphics/SVG/1.1/DTD/svg11.dtd"><svg t="1629279011118" class="icon" viewBox="0 0 1024 1024" version="1.1" xmlns="http://www.w3.org/2000/svg" p-id="2065" xmlns:xlink="http://www.w3.org/1999/xlink" width="128" height="128"><defs><style type="text/css"></style></defs><path d="M940.142104 361.39184l-66.015529-179.686429c-0.115634-0.310062-0.233314-0.620124-0.36532-0.927115-28.466332-69.204152-70.439282-84.355223-84.207867-84.355223-1.511423 0-3.00545 0.12996-4.452405 0.38681L236.359172 96.809883c-16.121166 0-33.815153 8.008394-49.821709 22.552645-16.036231 14.57188-29.179576 34.586726-38.012755 57.901735C99.19521 302.814724 70.994937 384.837832 64.710814 421.059801c-0.429789 2.481518-0.49835 5.007037-0.209778 7.512091l0.608867 5.183046c-0.333598 2.477424-0.786922 5.864568-0.786922 9.741875 0 58.201563 34.328853 104.84079 85.378529 123.122155l0 256.467139c0 53.745065 45.512566 106.863866 98.544387 106.863866l529.761526 0c53.035914 0 98.358145-53.118801 98.358145-106.863866L876.365568 566.618968c49.92404-18.887163 83.416851-65.73719 83.416851-123.118062 0-2.057869-0.164752-3.836375-0.329505-5.232165C961.855638 417.597957 955.800735 393.59631 940.142104 361.39184L940.142104 361.39184zM769.503748 887.203404 256.565377 887.203404c-24.860201 0-64.117296-29.596062-64.117296-64.117296L192.44808 566.618968c40.60786-1.502213 82.985016-4.657067 104.904235-29.846772 4.603855-5.287423 8.521071-10.816347 11.857049-16.45681 2.470261 3.39226 5.050016 6.691399 7.737218 9.880021 25.478278 30.257118 56.94699 36.422538 89.226161 36.422538 35.709293 0 67.350944 0.48914 90.862427-18.439978 5.558599-4.480035 10.570753-9.353019 15.018042-14.59951 4.449335 5.246491 9.457396 10.119475 15.020088 14.59951 23.509437 18.929118 57.109696 18.439978 92.823082 18.439978 32.061207 0 60.932768-3.363607 85.470627-28.525684 3.789303-3.883447 7.358595-7.967462 10.694573-12.218276 2.562359 3.849678 5.450129 7.627724 8.691963 11.30651 22.445198 25.399483 66.041112 28.370141 108.866477 29.438473l0 277.841959C833.621045 869.674169 794.369066 887.203404 769.503748 887.203404L769.503748 887.203404zM940.483888 438.382329c13.31526 0.927115-21.518083-1.075495-21.372773 0 0.01535 0.100284-0.01535-0.096191 0 0-0.347924 44.852534-46.5195 86.996376-90.418312 86.996376-30.188556 0-52.253084-7.529487-65.589834-22.385846-18.394952-20.507056-16.029068-50.316989-15.94618-51.261501 1.453095-14.030551-8.478092-26.670429-22.329565-28.372188-13.908778-1.709945-26.581402 8.245801-28.405957 22.315238-4.990664 38.493709-37.85312 79.704296-78.819137 79.704296-38.677904 0-80.001055-17.175171-80.001055-65.397453 0-14.279215-11.438517-25.865087-25.546839-25.865087-14.106276 0-25.541723 11.585873-25.541723 25.865087 0 48.222281-41.326221 65.397453-80.001055 65.397453-23.037692 0-41.646516-18.012236-50.686403-28.749788-15.404852-18.294668-26.249851-42.2298-29.008684-63.989383-0.004093-0.042979-0.01535-0.115634-0.019443-0.151449-1.833765-14.146185-14.642488-24.139793-28.613688-22.306029-13.973246 1.837858-23.845081 14.762215-22.056342 28.910447 0.047072 0.39295 4.342912 38.992059-17.226337 63.614853-13.171997 15.041578-34.531468 22.672372-63.482847 22.672372-44.112684 0-88.458681-41.85834-88.458681-86.996376 0.004093-0.457418-0.12996 0.99363 0 0 0.174985-1.311879-7.773034 1.686409 0 0 1.784646-0.382717 0.215918 1.810229 0 0l0-21.370727c6.909363-34.187637 40.411385-99.012038 85.49007-213.724663 0.038886-0.104377-0.040932 0.102331 0 0 13.31526-35.238572 37.780465-63.891146 42.744523-64.117296L790.876522 139.170666c6.021134 2.960425 27.322275 26.89044 42.744523 64.117296l64.117296 170.97707c0.312108 0.850367-0.400113-0.810459 0 0 14.34266 29.241998 22.556739 57.346079 21.372773 64.117296-0.337691 1.927909-0.096191-1.953492 0 0L940.483888 438.382329zM919.111115 438.382329" p-id="2066"></path></svg>