<?xml version="1.0" standalone="no"?><!DOCTYPE svg PUBLIC "-//W3C//DTD SVG 1.1//EN" "http://www.w3.org/Graphics/SVG/1.1/DTD/svg11.dtd"><svg t="1629279412180" class="icon" viewBox="0 0 1024 1024" version="1.1" xmlns="http://www.w3.org/2000/svg" p-id="6760" xmlns:xlink="http://www.w3.org/1999/xlink" width="128" height="128"><defs><style type="text/css"></style></defs><path d="M548.9664 294.2976c4.096 12.288 8.2432 28.7232 16.384 49.3056h188.8768v98.56h-73.9328v-41.0624H343.6032v41.0624H269.6704V343.552h201.216c-4.096-16.384-8.192-32.768-12.2368-41.0624l90.3168-8.192zM306.6368 450.4064h168.448v-41.0112h73.8816v40.96h168.448v279.3472h-69.888v-24.6272H548.9664v102.6048H475.0336v-102.6048H376.4736v24.576H306.688V450.4576z m340.8896 57.5488H548.9664v45.2096h98.56V507.904z m-271.0528 45.056h98.56v-45.2096H376.4736v45.2096z m0 98.56h98.56v-45.2096H376.4736v45.2096z m172.4928 0h98.56v-45.2096H548.9664v45.2096z" p-id="6761"></path><path d="M881.6128 347.7504c24.6272 0 41.0112 16.384 41.0112 41.0624V552.96c-4.096 221.7984-114.944 349.0304-324.4032 427.1616-20.5312 4.096-41.0112 12.288-65.6384 20.5824-8.2432 4.0448-12.288 4.0448-20.5824 4.0448-8.2432 0-12.288 0-20.5824-4.096a1115.136 1115.136 0 0 1-65.6384-24.576C216.32 898.048 105.4208 770.6624 101.376 548.9152V388.8128c0-24.6272 16.384-41.0624 41.0112-41.0624 24.6784 0 41.0624 16.384 41.0624 41.0624v160.1536c4.096 184.832 90.2656 283.3408 271.0016 353.2288 16.384 8.192 36.9664 12.288 57.5488 20.5312 20.5824-8.192 36.9664-12.288 57.5488-20.5312 180.736-69.888 266.9568-168.448 271.0016-353.28V388.864c0-24.6272 16.384-41.0624 41.0624-41.0624zM511.8976 19.2c20.5824 0 41.0112 16.384 41.0112 41.0112v4.096c4.096 4.096 4.096 8.2432 4.096 8.2432 24.6272 28.672 98.56 90.3168 324.352 90.3168 24.6784 0 41.0624 16.384 41.0624 41.0112 0.2048 24.7808-16.1792 41.1648-40.8064 41.1648-172.4928 0-303.9232-36.9664-369.6128-98.56-69.8368 61.5936-197.12 98.56-369.6128 98.56-24.6272 0-41.0112-16.384-41.0112-41.0624 0-24.576 16.384-41.0112 41.0112-41.0112 225.8432 0 299.776-61.5936 324.4032-86.2208 0 0 4.096-4.096 4.096-8.2432v-8.2944c0-24.576 16.384-41.0112 40.96-41.0112z" p-id="6762"></path></svg>