<?xml version="1.0" standalone="no"?><!DOCTYPE svg PUBLIC "-//W3C//DTD SVG 1.1//EN" "http://www.w3.org/Graphics/SVG/1.1/DTD/svg11.dtd"><svg t="1629279075113" class="icon" viewBox="0 0 1024 1024" version="1.1" xmlns="http://www.w3.org/2000/svg" p-id="3084" xmlns:xlink="http://www.w3.org/1999/xlink" width="128" height="128"><defs><style type="text/css"></style></defs><path d="M808.96 1024H0V0h916.48v302.592c0 22.528-18.432 40.96-40.96 40.96s-40.96-18.432-40.96-40.96V81.92H81.92v860.16h727.04c22.528 0 40.96 18.432 40.96 40.96s-18.432 40.96-40.96 40.96z" p-id="3085"></path><path d="M844.8 221.184H40.96c-22.528 0-40.96-18.432-40.96-40.96s18.432-40.96 40.96-40.96h803.84c22.528 0 40.96 18.432 40.96 40.96s-18.432 40.96-40.96 40.96zM291.84 363.52H184.32c-22.528 0-40.96-18.432-40.96-40.96s18.432-40.96 40.96-40.96h107.52c22.528 0 40.96 18.432 40.96 40.96s-18.432 40.96-40.96 40.96zM358.4 523.776H184.32c-22.528 0-40.96-18.432-40.96-40.96s18.432-40.96 40.96-40.96h174.08c22.528 0 40.96 18.432 40.96 40.96s-18.432 40.96-40.96 40.96zM409.6 684.544H184.32c-22.528 0-40.96-18.432-40.96-40.96s18.432-40.96 40.96-40.96h225.28c22.528 0 40.96 18.432 40.96 40.96s-18.432 40.96-40.96 40.96zM460.8 844.8H184.32c-22.528 0-40.96-18.432-40.96-40.96s18.432-40.96 40.96-40.96h276.48c22.528 0 40.96 18.432 40.96 40.96s-18.432 40.96-40.96 40.96zM716.8 849.92c-132.608 0-240.64-108.032-240.64-240.64s108.032-240.64 240.64-240.64 240.64 108.032 240.64 240.64-108.032 240.64-240.64 240.64z m0-399.36c-87.552 0-158.72 71.168-158.72 158.72s71.168 158.72 158.72 158.72 158.72-71.168 158.72-158.72-71.168-158.72-158.72-158.72z" p-id="3086"></path><path d="M983.04 983.04c-11.776 0-23.552-5.12-31.232-14.848l-133.12-158.72c-14.336-17.408-12.288-43.008 5.12-57.856 17.408-14.336 43.008-12.288 57.856 5.12l133.12 158.72c14.336 17.408 12.288 43.008-5.12 57.856-8.192 6.656-17.408 9.728-26.624 9.728z" p-id="3087"></path></svg>