<?xml version="1.0" standalone="no"?><!DOCTYPE svg PUBLIC "-//W3C//DTD SVG 1.1//EN" "http://www.w3.org/Graphics/SVG/1.1/DTD/svg11.dtd"><svg t="1629279333797" class="icon" viewBox="0 0 1024 1024" version="1.1" xmlns="http://www.w3.org/2000/svg" p-id="5925" xmlns:xlink="http://www.w3.org/1999/xlink" width="128" height="128"><defs><style type="text/css"></style></defs><path d="M745.24444479 694.0444448a45.55662187 45.55662187 0 0 1 2e-8 91.02222187 45.55662187 45.55662187 0 0 1 0-91.02222187m-439.95591148 91.02222187a45.55662187 45.55662187 0 0 1 0-91.02222187 45.51111147 45.51111147 0 0 1 0 91.02222187M147.91111147 637.1555552v-127.88622187L208.12231147 375.46666666H375.46666666v261.27928854c0 25.89582187 8.96568853 49.51608853 23.52924481 68.67626667H389.57511147A91.1587552 91.1587552 0 0 0 305.28853333 648.53333334c-38.0928 0-70.6787552 23.62026667-84.24106666 56.88888853h-6.7811552c-0.36408853 0-0.68266667 0.1820448-1.04675626 0.22755626-0.45511147-0.04551147-0.8192-0.31857813-1.31982188-0.3640896A68.4032 68.4032 0 0 1 147.91111147 637.1555552M898.8444448 420.97777813a22.7555552 22.7555552 0 0 0 22.75555519-22.75555626V307.6096A114.23288853 114.23288853 0 0 0 807.45813333 193.42222187h-317.8496A114.23288853 114.23288853 0 0 0 375.46666666 307.6096V329.9555552H193.42222187c-0.86471147 0-1.59288853 0.4096-2.41208854 0.50062293a24.21191147 24.21191147 0 0 0-6.05297813 1.18328854c-1.31982187 0.54613333-2.41208853 1.50186667-3.59537707 2.2755552-1.27431147 0.77368853-2.59413333 1.4108448-3.6864 2.4576-1.31982187 1.31982187-2.2755552 2.95822187-3.2312896 4.55111146-0.54613333 0.86471147-1.36533333 1.4563552-1.77493333 2.4576l-0.18204373 0.45511147-0.04551147 0.0455104-68.03911147 151.18791147-0.0455104 0.2275552c-0.5916448 1.36533333-0.68266667 2.91271147-1.0012448 4.36906666-0.31857813 1.54737813-0.91022187 3.00373333-0.91022186 4.5056L102.39999999 504.3996448v132.7559104a113.95982187 113.95982187 0 0 0 108.08888854 113.59573333c0.54613333 0 0.95573333-0.27306667 1.50186667-0.27306666 0.77368853 0.09102187 1.4563552 0.45511147 2.27555627 0.45511146h1.18328853c5.64337813 44.73742187 43.55413333 79.6444448 89.83893333 79.6444448a90.84017813 90.84017813 0 0 0 89.8844448-79.6444448H655.36c5.68888853 44.73742187 43.55413333 79.6444448 89.88444479 79.6444448a90.84017813 90.84017813 0 0 0 90.24853334-83.5128896A113.6867552 113.6867552 0 0 0 921.60000001 636.7459552V534.7555552a22.7555552 22.7555552 0 0 0-45.51111148 0v101.9904c0 30.5379552-20.43448853 55.66008853-48.60586666 64.44373333A90.97671147 90.97671147 0 0 0 745.24444479 648.53333334c-38.0928 0-70.72426667 23.62026667-84.24106666 56.88888853h-171.3948448A68.72177813 68.72177813 0 0 1 420.97777813 636.7459552V307.6096A68.72177813 68.72177813 0 0 1 489.60853333 238.93333333h317.8496A68.72177813 68.72177813 0 0 1 876.08888853 307.6096V398.22222187a22.7555552 22.7555552 0 0 0 22.75555627 22.75555626" p-id="5926"></path><path d="M303.42257813 523.37777813a22.7555552 22.7555552 0 0 0 0-45.51111146H218.0892448a22.7555552 22.7555552 0 0 0 0 45.51111146h85.33333333z" p-id="5927"></path></svg>